<svg width="1024" height="1024" viewBox="0 0 1024 1024" fill="none" xmlns="http://www.w3.org/2000/svg">
<path d="M0 48C0 21.4903 21.4903 0 48 0H976C1002.51 0 1024 21.4903 1024 48V976C1024 1002.51 1002.51 1024 976 1024H48C21.4903 1024 0 1002.51 0 976V48Z" fill="black"/>
<path d="M98.0725 402.28H137.753V334.76C137.753 309.587 143.512 288.253 155.033 270.76C166.553 253.267 181.486 239.933 199.833 230.76C218.179 221.587 237.379 217 257.432 217C282.179 217 300.953 220.307 313.753 226.92C326.766 233.533 335.086 238.547 338.713 241.96L295.833 324.2C294.766 322.707 292.312 320.36 288.473 317.16C284.633 313.96 279.833 312.36 274.073 312.36C270.446 312.36 266.819 313.32 263.193 315.24C259.566 317.16 256.579 320.36 254.233 324.84C251.886 329.32 250.713 335.827 250.713 344.36V402.28H312.153V494.76H250.713V665H137.753V494.76H98.0725V402.28Z" fill="url(#paint0_linear_1_5)"/>
<path d="M347.533 665V224.68H460.173V436.52C462.519 430.76 467.533 424.68 475.213 418.28C482.893 411.667 492.919 406.12 505.293 401.64C517.879 396.947 532.066 394.6 547.853 394.6C573.666 394.6 595.959 401.107 614.732 414.12C633.506 426.92 647.906 443.88 657.932 465C667.959 486.12 672.973 509.053 672.973 533.8C672.973 558.547 667.959 581.48 657.932 602.6C647.906 623.72 633.506 640.68 614.732 653.48C595.959 666.28 573.666 672.68 547.853 672.68C535.266 672.68 523.106 670.44 511.372 665.96C499.853 661.693 489.506 656.04 480.333 649C471.373 641.747 464.332 633.96 459.212 625.64V665H347.533ZM562.253 533.8C562.253 524.413 560.013 515.88 555.533 508.2C551.266 500.307 545.292 494.12 537.612 489.64C529.932 484.947 521.186 482.6 511.372 482.6C501.559 482.6 492.812 484.947 485.133 489.64C477.453 494.12 471.373 500.307 466.893 508.2C462.413 515.88 460.173 524.413 460.173 533.8C460.173 543.187 462.413 551.827 466.893 559.72C471.373 567.4 477.453 573.48 485.133 577.96C492.812 582.44 501.559 584.68 511.372 584.68C521.186 584.68 529.932 582.44 537.612 577.96C545.292 573.48 551.266 567.4 555.533 559.72C560.013 551.827 562.253 543.187 562.253 533.8Z" fill="url(#paint1_linear_1_5)"/>
<path d="M692.982 402.28H735.223V294.44H847.223V402.28H902.903V494.76H847.223V545.96C847.223 555.133 848.396 563.027 850.742 569.64C853.302 576.04 858.636 579.24 866.742 579.24C871.649 579.24 876.022 578.173 879.862 576.04C883.703 573.693 886.049 572.093 886.903 571.24L924.662 651.24C922.956 652.52 917.729 654.973 908.983 658.6C900.449 662.013 889.569 665.213 876.343 668.2C863.329 671.187 848.823 672.68 832.823 672.68C804.449 672.68 781.089 664.893 762.742 649.32C744.396 633.533 735.223 609.32 735.223 576.68V494.76H692.982V402.28Z" fill="url(#paint2_linear_1_5)"/>
<defs>
<linearGradient id="paint0_linear_1_5" x1="864.33" y1="217" x2="159.424" y2="805.706" gradientUnits="userSpaceOnUse">
<stop offset="0.61" stop-color="#8678F9"/>
<stop offset="1" stop-color="#C7D2FE"/>
</linearGradient>
<linearGradient id="paint1_linear_1_5" x1="864.33" y1="217" x2="159.424" y2="805.706" gradientUnits="userSpaceOnUse">
<stop offset="0.61" stop-color="#8678F9"/>
<stop offset="1" stop-color="#C7D2FE"/>
</linearGradient>
<linearGradient id="paint2_linear_1_5" x1="864.33" y1="217" x2="159.424" y2="805.706" gradientUnits="userSpaceOnUse">
<stop offset="0.61" stop-color="#8678F9"/>
<stop offset="1" stop-color="#C7D2FE"/>
</linearGradient>
</defs>
</svg>
